<svg width="32" height="32" viewBox="0 0 32 32" fill="none" xmlns="http://www.w3.org/2000/svg">
  <!-- Background rounded square with gradient -->
  <defs>
    <linearGradient id="faviconGradient" x1="0%" y1="0%" x2="100%" y2="100%">
      <stop offset="0%" style="stop-color:#4A90E2;stop-opacity:1" />
      <stop offset="100%" style="stop-color:#2E5BBA;stop-opacity:1" />
    </linearGradient>
  </defs>
  
  <rect x="1" y="1" width="30" height="30" rx="6" ry="6" fill="url(#faviconGradient)" stroke="#2E5BBA" stroke-width="1"/>
  
  <!-- DX letters in frame -->
  <g transform="translate(4, 4)">
    <!-- Frame -->
    <rect x="0" y="0" width="24" height="24" rx="2" ry="2" fill="none" stroke="white" stroke-width="1"/>
    
    <!-- Letter D -->
    <path d="M2 5 L2 19 L8 19 C12 19 14 17 14 12 C14 7 12 5 8 5 L2 5 Z M4 7 L8 7 C10 7 12 8 12 12 C12 16 10 17 8 17 L4 17 L4 7 Z" fill="white"/>
    
    <!-- Letter X -->
    <path d="M16 5 L18 5 L20 9 L22 5 L24 5 L21 11 L24 17 L22 17 L20 13 L18 17 L16 17 L19 11 L16 5 Z" fill="white"/>
  </g>
</svg>
